<svg xmlns="http://www.w3.org/2000/svg" width="159" height="67" fill="none" viewBox="0 0 159 67">
    <path fill="#FF0" d="M158.107 0H0v67h158.107V0z"/>
    <path fill="#000" d="M19.79 27.846l1.277-8.026h.06l1.277 8.026H19.79zm-.7-11.734l-3.434 18.665h3.1l.578-4.135h3.526l.578 4.135h3.1l-3.465-18.665h-3.982zM30.886 20.185h.06l2.888 14.592h1.55l2.919-14.592h.03v14.592h2.797V16.112h-4.225l-2.25 10.913h-.06l-2.28-10.913h-4.226v18.665h2.797V20.185zM51.01 26.782h-.06l-3.892-10.67H44.08v18.665h2.888V23.103h.06l4.074 11.674h2.797V16.112H51.01v10.67zM65.784 31.98H60.07v-5.472h4.134v-2.797H60.07v-4.833h5.38v-2.766h-8.602v18.665h8.937V31.98zM70.1 20.459c0-1.156.578-1.824 1.612-1.824.73 0 1.58.456 1.702 2.067l3.04-.335c-.273-2.644-1.824-4.53-4.438-4.53-3.162 0-4.955 1.673-4.955 4.652 0 5.35 6.505 6.323 6.505 10.032 0 1.124-.76 1.702-1.854 1.702-1.034 0-1.794-.942-1.915-2.827l-3.04.426c.121 2.796 1.824 5.167 4.803 5.167 3.01 0 5.077-1.702 5.077-4.772-.03-5.046-6.536-6.566-6.536-9.758zM80.285 34.777h3.192v-15.9h3.13v-2.765h-9.423v2.766h3.1v15.899zM92.93 23.195h-.06l-2.25-7.083h-3.252l3.89 10.913v7.752h3.193v-7.752l3.89-10.913H95.06l-2.128 7.083zM136.402 37.33c-.213-.091-.243-.76-.365-.76-.182 0-.274.608-.638.7-.365.06-.912-.396-1.064-.274-.152.121.334.973-.487.973-.243 0-.364-.274-.364-.487v-6.596s.03 0 .395.09c.243.062.486.183.486.518 0 .182-.061.547.061.608.121.06.213-.061.273-.092 1.125-.82 1.399.639 1.642.639.213 0 .182-1.003.486-1.003.244-.092 2.554 1.033 2.554 1.763 0 .152-.304.182-.334.334-.031.213.547.304.456.7-.031.242-.578.547-.426.699.152.151.882-.153.942-.153.152 0 .183.244.183.335 0 1.307-3.101 2.31-3.8 2.006zm-8.299 1.064c-.183-.304-.091-.82-.274-.82-.091 0-.577.729-.851.729s-.73-.517-.912-.517c-.122 0 .122.73-.122 1.034-.152.213-1.611.365-1.611.182V28.727c0-.486.365-.669.7-.669h5.411c.668 0 .942.213.942.912v9.211c.03.304-3.162.426-3.283.213zm3.313 13.011c0 .639-.212.79-.76.669l-5.775-1.155c-.335-.061-.517-.274-.517-.639V39.823c0-.274.942-.304 1.094-.182.274.243.182 1.124.365 1.124.243 0 .881-1.064 1.155-1.064.578 0 .973.335 1.094.274.122-.06.122-.547.274-.669.213-.152.851-.152 1.186-.182.547-.03 1.55-.122 1.55-.122.395 0 .365.274.365.851v11.552h-.031zm-6.231-30.308c0-4.165 6.171-6.566 6.596-8.664.456.426.517 1.125.517 1.733 0 2.523-4.408 6.81-4.408 9.88 0 .334.03.425.03.638 0 .304-.121.365-.182.365-.73-.03-2.553-1.46-2.553-3.952zm-3.405 26.052c-.487 0-.791-.973-.912-.942-.152.03.03.82-.152.942-.152.152-3.344-1.337-3.587-1.58-.213-.213.091-.517 0-.73-.061-.182-.547-.122-.699-.213-.122-.121.152-.669-.031-.79-.152-.091-.486.547-.699.243-.091-.122-.122-.334-.122-.608 0-1.854 1.976-2.584 3.283-3.04.548-.182.365.517.548.547.212.061.243-.334.486-.334.182 0 .882.334 1.034.213.121-.092-.365-.548-.213-.73.182-.152 1.581-.426 1.581-.06v6.444c0 .699-.517.638-.517.638zm18.969-11.126c.334-.578.334-1.277.456-1.55.182-.304.851-.243.851-.456 0-.092-.486-.213-.669-.335-.364-.213-.243-1.307-.425-1.307-.274 0-.547.76-.821.426-.486-.608-2.462-1.763-3.374-2.098-.335-.121.243-1.125.091-1.216-.152-.091-.547.608-1.125.487-.456-.092-.243-.912-.486-.912-.122 0-.578 1.155-.912 1.064l-.851-.213v-3.01c0-.516-.335-.912-.791-.912h-3.253c-.912 0-.851-.668-.851-.82 0-4.013 5.837-4.682 5.837-9.941 0-2.31-1.459-3.83-3.131-5.198-.091-.061 0 .334 0 .486 0 2.432-9.09 3.709-9.09 9.363 0 4.925 4.895 5.137 4.895 5.898 0 .151-.304.212-.335.212h-3.739c-.395 0-.729.244-.729.912v3.04c-.365.122-.852-.425-1.095-.425-.121 0-.061.942-.273 1.064-.183.09-3.588 1.307-3.891 1.337-.487.091-.365-.76-.639-.76-.243 0-.243.851-.851.851-.365 0-.669-.334-.942-.334-.183 0 .395.7.395.912 0 .578-1.125.79-1.125 1.185 0 .213 1.064-.09 1.216-.09.547 0 .486.638.699.638.213 0 .365-.73.547-.852.365-.212.791.152.973.152.304 0-.243-.73.03-.85 0 0 3.679-1.581 3.922-1.46.213.122.182.487.426.608.243.122.608-.851.608-.243v7.417c-.426.274-1.338.426-1.824.426-.244 0-.122-.79-.274-.79-.243 0-.486.668-.851.668-.335 0-.821-.82-1.155-.82-.213 0 .395 1.033.03 1.216-1.398.699-3.587 1.368-3.587 3.556 0 .456.243 1.004.152 1.156-.091.212-.578.638-.547.82 0 .183.912.122 1.094.395.091.152.152.821.335.821.152 0 .547-.517.881-.334 1.064.638 2.888 1.337 3.739 1.793.213.122.091.79.213.852.243.121.73-.639 1.49-.213.152.06.304.304.304.577v2.463c0 .456.212.577.456.638l8.998 1.794s.79.182 1.064.182c.304 0 .699 0 .669-.76V47.91c0-.06.06-.182.182-.182.517 0 .274 1.52.395 1.52.243 0 .395-1.034.699-1.034.426 0 .699.395.882.304.152-.091-.091-.577-.091-.881 0-.274.79-.396 1.763-.76.851-.304 1.55-.639 1.824-.639.213 0 .365.578.547.578.152 0 .182-.76.517-.76.273 0 .881.425 1.033.304.122-.091-.304-.669.031-.912.243-.152.821-.517.821-.669 0-.091-1.125-.121-1.186-.121-.213-.061-.456-.73-.608-.73-.182 0-.182.669-.456.882-.243.182-.851-.639-1.125-.639-.152 0 .183.608.183 1.094 0 .487-2.919 1.43-3.314 1.43-.608 0-.638-.76-.76-.76-.182 0-.182.911-.851.911-.334 0-.456-.243-.456-.425v-7.266c0-.213.061-.486.456-.517.486-.03.517 1.095.699 1.095.334 0 .517-1.125 1.155-1.125.487 0 .882.669 1.186.669.213 0-.365-.7-.365-1.034-.03-.304 2.949-.182 4.104-2.219zM18.027 39.67h-1.946V50.92h1.946V39.67zM19.699 50.919V39.67h1.793l2.371 6.414h.03v-6.414h1.734v11.248h-1.672l-2.463-7.023h-.03v7.023h-1.763zM28.424 41.343h-1.855V39.67h5.655v1.672h-1.855v9.576h-1.945v-9.576zM33.166 50.919V39.67h5.167v1.672h-3.222v2.888h2.493v1.702H35.11v3.283h3.466v1.703h-5.411zM41.738 50.919h-1.915V39.67h2.706c1.094 0 1.884.243 2.432.76.547.517.82 1.368.82 2.553 0 .456-.03.852-.121 1.156-.091.334-.182.608-.304.82-.122.213-.274.396-.426.548-.152.121-.334.243-.486.304l1.642 5.107h-1.977l-1.367-4.651c-.122.03-.274.03-.456.03h-.548v4.62zm-.121-6.202h.699c.274 0 .486-.03.669-.091.182-.06.334-.152.456-.274.121-.121.212-.304.243-.547.06-.213.091-.517.091-.82 0-.67-.121-1.125-.334-1.368-.213-.244-.578-.365-1.095-.365h-.699v3.465h-.03zM47.332 50.919V39.67h1.794l2.34 6.414h.03v-6.414h1.764v11.248h-1.703l-2.462-7.023h-.03v7.023h-1.733zM56.178 50.919h-1.884L56.36 39.67h2.401l2.067 11.248h-1.885l-.334-2.493h-2.128l-.304 2.493zm.639-4.195h1.55l-.76-4.834h-.03l-.76 4.834zM62.592 41.343h-1.854V39.67h5.654v1.672h-1.854v9.576h-1.946v-9.576zM69.553 39.67h-1.945V50.92h1.945V39.67zM71.074 42.377c0-.396.06-.76.182-1.125s.304-.669.547-.912c.243-.274.547-.456.912-.608.365-.152.821-.213 1.307-.213.487 0 .943.06 1.308.213.364.152.668.365.912.608.243.273.425.577.547.912.121.365.182.73.182 1.125v5.806c0 .395-.06.76-.182 1.125-.122.364-.304.668-.547.912-.244.273-.548.456-.912.608-.365.152-.821.212-1.308.212-.486 0-.942-.09-1.307-.212-.365-.152-.669-.365-.912-.608-.243-.274-.425-.578-.547-.912-.121-.365-.182-.73-.182-1.125v-5.806zm1.945 5.775c0 .426.061.73.213.943.152.213.426.304.82.304.396 0 .67-.091.822-.304.152-.213.212-.517.212-.943v-5.715c0-.425-.06-.73-.212-.942-.152-.213-.426-.304-.821-.304-.395 0-.669.091-.82.304-.153.213-.214.517-.214.942v5.715zM78.309 50.919V39.67h1.793l2.371 6.414h.03v-6.414h1.734v11.248h-1.672l-2.463-7.023h-.03v7.023h-1.763zM87.185 50.919H85.3l2.067-11.248h2.402l2.067 11.248h-1.885l-.334-2.493h-2.128l-.304 2.493zm.638-4.195h1.55l-.76-4.834h-.03l-.76 4.834zM92.84 50.919V39.67h1.914v9.545h3.04v1.703H92.84z"/>
</svg>
